<svg width="28" height="28" viewBox="0 0 28 28" fill="none" xmlns="http://www.w3.org/2000/svg">
<mask id="mask0" mask-type="alpha" maskUnits="userSpaceOnUse" x="1" y="1" width="26" height="26">
<path d="M1 6.44401C1 -1.21968 15.1358 0.0467145 21.5269 5.07549C24.3252 7.27733 26.4458 9.8653 26.8241 12.6023C28.3376 23.5505 19.7188 35.3411 14.9053 18.7606C12.9188 11.9181 1 16.0236 1 6.44401Z" fill="#54B9D0"/>
</mask>
<g mask="url(#mask0)">
<path d="M0 0H28V28H0V0Z" fill="#F4B7BD"/>
<rect width="28" height="28" fill="white"/>
</g>
<g clip-path="url(#clip0)">
<path d="M12.7156 21.9844L10.8094 21.4313C10.6094 21.375 10.4969 21.1656 10.5531 20.9656L14.8187 6.27187C14.875 6.07187 15.0843 5.95937 15.2843 6.01562L17.1906 6.56875C17.3906 6.625 17.5031 6.83437 17.4468 7.03437L13.1812 21.7281C13.1218 21.9281 12.9156 22.0438 12.7156 21.9844V21.9844ZM9.15311 18.4781L10.5125 17.0281C10.6562 16.875 10.6469 16.6313 10.4875 16.4906L7.65623 14L10.4875 11.5094C10.6469 11.3687 10.6594 11.125 10.5125 10.9719L9.15311 9.52187C9.01248 9.37187 8.77498 9.3625 8.62186 9.50625L4.11874 13.725C3.95936 13.8719 3.95936 14.125 4.11874 14.2719L8.62186 18.4938C8.77498 18.6375 9.01248 18.6313 9.15311 18.4781V18.4781ZM19.3781 18.4969L23.8812 14.275C24.0406 14.1281 24.0406 13.875 23.8812 13.7281L19.3781 9.50312C19.2281 9.3625 18.9906 9.36875 18.8468 9.51875L17.4875 10.9687C17.3437 11.1219 17.3531 11.3656 17.5125 11.5062L20.3437 14L17.5125 16.4906C17.3531 16.6313 17.3406 16.875 17.4875 17.0281L18.8468 18.4781C18.9875 18.6313 19.225 18.6375 19.3781 18.4969V18.4969Z" fill="black"/>
</g>
<defs>
<clipPath id="clip0">
<rect width="20" height="16" fill="white" transform="translate(4 6)"/>
</clipPath>
</defs>
</svg>
