<svg width="28" height="28" viewBox="0 0 28 28" fill="none" xmlns="http://www.w3.org/2000/svg">
<mask id="mask0" mask-type="alpha" maskUnits="userSpaceOnUse" x="2" y="1" width="24" height="26">
<path fill-rule="evenodd" clip-rule="evenodd" d="M15.0147 1.1407C16.9451 0.668755 18.9036 1.4489 20.5821 2.51679C22.8499 3.95965 25.6315 5.43444 25.9685 8.10986C26.3214 10.9113 23.6231 12.8912 22.1952 15.3235C19.8246 19.3615 19.5364 25.61 15.0147 26.7685C10.4075 27.9489 5.22728 24.4378 2.91799 20.2624C0.860245 16.5418 2.61836 11.8197 4.69521 8.10986C6.00574 5.76887 9.40791 6.20458 11.6267 4.70617C13.0377 3.75323 13.3627 1.54458 15.0147 1.1407Z" fill="#F4B7BD"/>
</mask>
<g mask="url(#mask0)">
<rect width="28" height="28" fill="white"/>
</g>
<path d="M22.125 8.5H5.875C4.83945 8.5 4 9.33945 4 10.375V21.625C4 22.6605 4.83945 23.5 5.875 23.5H22.125C23.1605 23.5 24 22.6605 24 21.625V10.375C24 9.33945 23.1605 8.5 22.125 8.5ZM21.8906 21.625H6.10938C6.04721 21.625 5.9876 21.6003 5.94365 21.5564C5.89969 21.5124 5.875 21.4528 5.875 21.3906V10.6094C5.875 10.5472 5.89969 10.4876 5.94365 10.4436C5.9876 10.3997 6.04721 10.375 6.10938 10.375H21.8906C21.9528 10.375 22.0124 10.3997 22.0564 10.4436C22.1003 10.4876 22.125 10.5472 22.125 10.6094V21.3906C22.125 21.4528 22.1003 21.5124 22.0564 21.5564C22.0124 21.6003 21.9528 21.625 21.8906 21.625V21.625ZM9 11.9375C8.13707 11.9375 7.4375 12.6371 7.4375 13.5C7.4375 14.3629 8.13707 15.0625 9 15.0625C9.86293 15.0625 10.5625 14.3629 10.5625 13.5C10.5625 12.6371 9.86293 11.9375 9 11.9375ZM7.75 19.75H20.25V16.625L16.8314 13.2064C16.6484 13.0234 16.3516 13.0234 16.1685 13.2064L11.5 17.875L9.95645 16.3314C9.7734 16.1484 9.4766 16.1484 9.29352 16.3314L7.75 17.875V19.75Z" fill="black"/>
</svg>
