<svg width="28" height="28" viewBox="0 0 28 28" fill="none" xmlns="http://www.w3.org/2000/svg">
<mask id="mask0" mask-type="alpha" maskUnits="userSpaceOnUse" x="2" y="2" width="24" height="24">
<path fill-rule="evenodd" clip-rule="evenodd" d="M2.67251 3.78593C5.61537 -0.670769 11.385 4.48103 16.265 5.59997C19.6749 6.38181 24.232 5.55333 25.0368 8.91383C26.4457 14.7974 27.1351 23.3446 21.0675 25.6543C15.2358 27.8743 14.0605 18.8425 10.3968 14.4869C7.26863 10.7681 -0.281811 8.25997 2.67251 3.78593Z" fill="#8DC6F2"/>
</mask>
<g mask="url(#mask0)">
<rect width="28" height="28" fill="white"/>
</g>
<g clip-path="url(#clip0)">
<path d="M14 4.32257C8.47581 4.32257 4 8.79838 4 14.3226C4 19.8468 8.47581 24.3226 14 24.3226C19.5242 24.3226 24 19.8468 24 14.3226C24 8.79838 19.5242 4.32257 14 4.32257ZM16.5685 9.51209C16.875 9.05241 17.5645 9.04031 17.8871 9.51209C18.3871 10.254 18.496 11 18.5202 11.7419C18.5 12.4839 18.3871 13.2298 17.8871 13.9718C17.5806 14.4314 16.8911 14.4435 16.5685 13.9718C16.0685 13.2298 15.9597 12.4839 15.9355 11.7419C15.9556 11 16.0685 10.254 16.5685 9.51209ZM10.1169 9.51209C10.4234 9.05241 11.1129 9.04031 11.4355 9.51209C11.9355 10.254 12.0444 11 12.0685 11.7419C12.0484 12.4839 11.9355 13.2298 11.4355 13.9718C11.129 14.4314 10.4395 14.4435 10.1169 13.9718C9.61694 13.2298 9.50806 12.4839 9.48387 11.7419C9.50403 11 9.61694 10.254 10.1169 9.51209ZM14 21.4193C11.5565 21.4193 8.57661 19.875 8.20161 17.6572C8.12097 17.1814 8.57661 16.7863 9.03629 16.9355C10.254 17.3266 12.0645 17.5484 14 17.5484C15.9355 17.5484 17.746 17.3266 18.9637 16.9355C19.4234 16.7863 19.875 17.1814 19.7984 17.6572C19.4234 19.875 16.4435 21.4193 14 21.4193Z" fill="black"/>
</g>
<defs>
<clipPath id="clip0">
<rect width="20" height="20.6452" fill="white" transform="translate(4 4)"/>
</clipPath>
</defs>
</svg>
