<svg width="28" height="28" viewBox="0 0 28 28" fill="none" xmlns="http://www.w3.org/2000/svg">
<mask id="mask0" mask-type="alpha" maskUnits="userSpaceOnUse" x="1" y="2" width="26" height="24">
<path d="M1.448 11.3388C-2.11701 -3.83883 16.7266 3.88548 17.9998 4.56306C19.273 5.24063 32.5145 9.44157 24.3659 18.1145C14.1802 28.9556 5.90426 30.3108 1.448 11.3388Z" fill="#69D9C8"/>
</mask>
<g mask="url(#mask0)">
<rect width="28" height="28" fill="white"/>
</g>
<g clip-path="url(#clip0)">
<path d="M23.5742 19.457L19 14.8828C18.0976 13.9805 16.75 13.8047 15.6641 14.3398L11.5 10.1758V7.75L6.5 4L4 6.5L7.75 11.5H10.1758L14.3398 15.6641C13.8086 16.75 13.9805 18.0977 14.8828 19L19.457 23.5742C20.0273 24.1445 20.9492 24.1445 21.5156 23.5742L23.5742 21.5156C24.1406 20.9453 24.1406 20.0234 23.5742 19.457V19.457ZM16.957 12.7891C18.0625 12.7891 19.1016 13.2188 19.8828 14L20.6406 14.7578C21.2578 14.4883 21.8437 14.1133 22.3515 13.6055C23.8008 12.1562 24.293 10.1172 23.832 8.26562C23.7461 7.91406 23.3047 7.79297 23.0469 8.05078L20.1406 10.957L17.4883 10.5156L17.0469 7.86328L19.9531 4.95703C20.2109 4.69922 20.0859 4.25781 19.7305 4.16797C17.8789 3.71094 15.8398 4.20313 14.3945 5.64844C13.2812 6.76172 12.7578 8.23047 12.7851 9.69531L15.9922 12.9023C16.3086 12.8281 16.6367 12.7891 16.957 12.7891ZM12.8984 15.9922L10.6836 13.7773L4.73047 19.7344C3.75391 20.7109 3.75391 22.293 4.73047 23.2695C5.70703 24.2461 7.28906 24.2461 8.26562 23.2695L13.0937 18.4414C12.7969 17.6641 12.707 16.8164 12.8984 15.9922V15.9922ZM6.5 22.4375C5.98437 22.4375 5.5625 22.0156 5.5625 21.5C5.5625 20.9805 5.98047 20.5625 6.5 20.5625C7.01953 20.5625 7.4375 20.9805 7.4375 21.5C7.4375 22.0156 7.01953 22.4375 6.5 22.4375Z" fill="black"/>
</g>
<defs>
<clipPath id="clip0">
<rect width="20" height="20" fill="white" transform="translate(4 4)"/>
</clipPath>
</defs>
</svg>
